<svg width="1965" height="1144" viewBox="0 0 1965 1144" fill="none" xmlns="http://www.w3.org/2000/svg">
<path opacity="0.25" d="M709 214.5L610.5 385.54L413.501 385.54L315.001 214.5L413.501 43.46L610.5 43.46L709 214.5Z" fill="#E2405A"/>
<path opacity="0.3" d="M1024 750.5L925.5 921.54L728.501 921.54L630.001 750.5L728.501 579.46L925.5 579.46L1024 750.5Z" fill="#E2405A"/>
<path opacity="0.25" d="M1334 197.5L1235.5 368.54L1038.5 368.54L940.001 197.5L1038.5 26.46L1235.5 26.46L1334 197.5Z" fill="#E2405A"/>
<path opacity="0.25" d="M709 938.5L610.5 1109.54L413.501 1109.54L315.001 938.5L413.501 767.46L610.5 767.46L709 938.5Z" fill="#E2405A"/>
<path opacity="0.25" d="M394 764.5L295.5 935.54L98.5 935.54L2.18846e-05 764.5L98.5 593.46L295.5 593.46L394 764.5Z" fill="#E2405A"/>
<path opacity="0.25" d="M394 394.5L295.5 565.54L98.5 565.54L2.18846e-05 394.5L98.5 223.46L295.5 223.46L394 394.5Z" fill="#E2405A"/>
<path opacity="0.25" d="M1965 197.5L1866.5 368.54L1669.5 368.54L1571 197.5L1669.5 26.46L1866.5 26.46L1965 197.5Z" fill="#E2405A"/>
<path opacity="0.25" d="M1965 577.5L1866.5 748.54L1669.5 748.54L1571 577.5L1669.5 406.46L1866.5 406.46L1965 577.5Z" fill="#E2405A"/>
<path opacity="0.25" d="M1965 946.5L1866.5 1117.54L1669.5 1117.54L1571 946.5L1669.5 775.46L1866.5 775.46L1965 946.5Z" fill="#E2405A"/>
<path opacity="0.25" d="M1334 938.5L1235.5 1109.54L1038.5 1109.54L940 938.5L1038.5 767.46L1235.5 767.46L1334 938.5Z" fill="#E2405A"/>
</svg>
